<svg width="100%" height="100%" viewBox="0 0 100 100" fill="none" xmlns="http://www.w3.org/2000/svg">
<path d="M90 50C90 72.0914 72.0914 90 50 90C35.1944 90 22.2675 81.956 15.3513 70C11.9479 64.1165 10 57.2857 10 50C10 27.9086 27.9086 10 50 10C72.0914 10 90 27.9086 90 50Z" stroke="currentColor" stroke-width="10" stroke-linecap="round" stroke-linejoin="round"/>
<path d="M11.783 65.1152H88.217" stroke="currentColor" stroke-width="10" stroke-linejoin="round"/>
<path d="M13.6101 34.7852L88.217 35.2461" stroke="currentColor" stroke-width="10" stroke-linejoin="round"/>
<path d="M65.105 50C65.105 72.0914 58.3423 90 50 90C41.6577 90 34.895 72.0914 34.895 50C34.895 27.9086 41.6577 10 50 10C58.3423 10 65.105 27.9086 65.105 50Z" stroke="currentColor" stroke-width="10" stroke-linecap="round" stroke-linejoin="round"/>
</svg>
