<svg width="100%" height="100%" viewBox="0 0 100 100" fill="none" xmlns="http://www.w3.org/2000/svg">
<path d="M75 40C75 26.1929 63.8071 15 50 15C36.1929 15 25 26.1929 25 40C25 45.456 26.7421 50.4903 29.7012 54.5967C31.2474 56.7424 33.0976 58.7411 35.1943 60.9355C37.221 63.0566 39.5387 65.42 41.6006 67.9971L42.4033 69H57.5967L58.3994 67.9971C60.4613 65.42 62.779 63.0566 64.8057 60.9355C66.9024 58.7411 68.7526 56.7424 70.2988 54.5967C73.2579 50.4903 75 45.456 75 40ZM45 85H55V79H45V85ZM85 40C85 47.6235 82.5572 54.6913 78.4121 60.4434C76.42 63.2078 74.1352 65.647 72.0361 67.8438C69.8671 70.1138 67.9271 72.0956 66.208 74.2441L65 75.7539V90C65 92.7614 62.7614 95 60 95H40C37.2386 95 35 92.7614 35 90V75.7539L33.792 74.2441C32.0729 72.0956 30.1329 70.1138 27.9639 67.8438C25.8648 65.647 23.58 63.2078 21.5879 60.4434C17.4428 54.6912 15 47.6235 15 40C15 20.67 30.67 5 50 5C69.33 5 85 20.67 85 40Z" fill="currentColor"/>
<path d="M60 30C62.6448 32.5376 66.3475 40.0903 60 50" stroke="currentColor" stroke-width="10" stroke-linecap="round" stroke-linejoin="round"/>
</svg>
